<svg version="1" xmlns="http://www.w3.org/2000/svg" width="1066.667" height="1066.667" viewBox="0 0 800.000000 800.000000"><path d="M377 .6c-1.9.2-9.1.9-16 1.5-75.7 6.5-152.7 38.4-215.2 89.1-14.5 11.8-42.8 40.1-54.6 54.6-38.1 47-64.7 99.8-79.1 157.1-4.4 17.7-8.3 39.7-10.3 58.1-1.7 16.2-1.7 61.8 0 78 8.4 79.8 38.7 152.7 89.4 215.2 11.8 14.5 40.1 42.8 54.6 54.6 47 38.1 99.8 64.7 157.1 79.1 17.7 4.4 39.7 8.3 58.1 10.3 16.2 1.7 61.8 1.7 78 0 79.8-8.4 152.7-38.7 215.2-89.4 14.5-11.8 42.8-40.1 54.6-54.6 38.1-47 64.7-99.8 79.1-157.1 4.4-17.7 8.3-39.7 10.3-58.1 1.7-16.2 1.7-61.8 0-78-8.4-79.8-38.7-152.7-89.4-215.2-11.8-14.5-40.1-42.8-54.6-54.6-47-38.1-99.8-64.7-157.1-79.1C480.6 8 457.2 3.8 440.5 2 430.3.9 383.4-.1 377 .6zM433.5 76c86.3 7.2 147.8 40.6 188.2 102.1 7.7 11.9 19.7 34.5 19 36.2-.5 1.3-37 29.5-38.7 29.9-.6.2-3-4-5.4-9.3-31.2-68.2-82.9-104.7-162.1-114.1-16.4-1.9-57.9-1.6-73 .6-39.2 5.7-70.6 18.5-95.1 38.8-18 14.9-32 36.7-38.1 59.5-2.4 8.9-2.7 11.6-2.7 28.8-.1 16.9.2 20 2.3 27.9 4.1 15.7 10.3 27.9 20.4 40.4 14 17.3 44.4 33 86.3 44.6 7.1 2 45.1 10.6 84.4 19.1 39.3 8.6 78.3 17.3 86.5 19.5 49.6 12.9 84.6 30.1 106.9 52.4 26.6 26.7 38.8 60 37.3 102.1-1.1 29.6-8.3 53.3-23.3 76.2-41.8 64.2-119 96.6-223.9 94-59.6-1.5-104.6-11.9-146.5-33.9-47.1-24.7-82.2-61.5-101-106.1-2.8-6.5-4.8-12.2-4.5-12.7.8-1.2 39.5-31 40.7-31.3.5-.1 2.5 4.1 4.4 9.3 20.7 57.7 62.8 97.1 125.1 117 49.4 15.9 112.4 18.3 165.9 6.4 29.9-6.6 57.5-19.7 74.9-35.6 21.8-19.7 32.8-39.2 37.1-65.4 2.4-14.5 1.5-34.9-2-46.7-6.5-21.9-20-40-39.4-53-9.5-6.4-26.8-14.3-42.7-19.5-16-5.3-16.5-5.4-104-24.6-72.2-15.9-88.7-19.8-106.1-25.2-49.7-15.3-85.9-37.9-106.8-66.4-9.4-12.8-16.3-29.4-20.7-50-3.1-14.2-3.4-47.5-.6-61.5 10.1-49.8 42.6-91.9 92.2-119.1C290.8 94.1 312.6 86.2 339 81c12.5-2.5 19.8-3.4 40-5.3 8.3-.8 43.5-.6 54.5.3z"/></svg>